<?xml version="1.0" encoding="UTF-8" standalone="no"?>
<svg
   xmlns:dc="http://purl.org/dc/elements/1.1/"
   xmlns:cc="http://web.resource.org/cc/"
   xmlns:rdf="http://www.w3.org/1999/02/22-rdf-syntax-ns#"
   xmlns:svg="http://www.w3.org/2000/svg"
   xmlns="http://www.w3.org/2000/svg"
   width="600"
   height="600"
   viewBox="0 0 600 600"
   version="1.0">
   <metadata>
    <rdf:RDF>
      <cc:Work rdf:about="">
        <dc:format>image/svg+xml</dc:format>
        <dc:type rdf:resource="http://purl.org/dc/dcmitype/StillImage" />
      </cc:Work>
    </rdf:RDF>
  </metadata>
  <title>Male and female toilets symbol</title>
  <g transform="translate(-22.196341,-20.6479)">
    <path style="fill:#000000" d="M 81.553493,609.68121 C 58.074707,605.31275 43.526777,591.98169 37.320273,569.14791 C 35.654149,563.01822 35.553493,548.94635 35.553493,322.14791 L 35.553493,81.647914 L 37.786648,73.274135 C 43.51247,51.803722 57.567367,38.062157 79.553493,32.438415 C 86.184618,30.742267 99.147948,30.647914 325.55349,30.647914 C 549.07622,30.647914 564.99018,30.760209 571.29679,32.38197 C 587.90328,36.652366 600.66386,46.468236 607.39236,60.147914 C 615.14941,75.918708 614.55349,54.157732 614.55349,321.64791 C 614.55349,548.72401 614.46324,561.03248 612.74459,568.35605 C 607.81497,589.36235 595.17634,602.42301 573.55349,608.85581 C 567.87441,610.54534 554.74335,610.64998 328.05349,610.81222 C 134.98899,610.95039 87.196297,610.7311 81.553493,609.68121 z M 181.20197,515.04218 C 187.13134,510.8201 187.05349,511.71635 187.05349,447.68003 L 187.05349,389.14791 L 191.55349,389.14791 L 196.05349,389.14791 L 196.05349,447.91351 C 196.05349,514.66166 195.68393,511.54695 204.12748,515.96248 C 211.60507,519.87286 219.12207,517.95375 224.4917,510.76346 C 226.51244,508.05756 226.55893,506.81941 226.82654,448.57525 L 227.09959,389.14791 L 247.07654,389.14791 C 258.06386,389.14791 267.05349,388.87406 267.05349,388.53935 C 267.05349,388.20465 257.37849,354.68691 245.55349,314.05549 C 233.72849,273.42407 224.05349,239.94792 224.05349,239.66405 C 224.05349,239.38017 225.59817,239.14791 227.4861,239.14791 C 229.8898,239.14791 231.07513,239.67247 231.44054,240.89791 C 231.72754,241.86041 237.64238,261.75191 244.58462,285.10125 C 251.52686,308.45058 258.06656,328.7619 259.11729,330.23751 C 261.93279,334.19152 268.23604,336.44512 272.9383,335.17893 C 279.00872,333.54433 283.05349,328.03627 283.05349,321.40431 C 283.05349,316.30653 253.94059,220.33734 250.73459,214.86672 C 244.59554,204.39122 231.84255,195.3322 220.167,193.15319 C 213.13368,191.84056 169.88564,191.85222 162.94431,193.16862 C 150.34626,195.55779 137.53883,204.87904 132.21936,215.53024 C 129.27341,221.42894 100.05349,317.59699 100.05349,321.39396 C 100.05349,329.4611 105.97768,335.13768 114.40349,335.14417 C 118.56052,335.14738 119.72546,334.67594 122.55674,331.84466 C 126.30907,328.09233 126.24992,328.2659 142.13474,274.39791 L 152.52941,239.14791 L 155.85884,239.14791 C 158.56469,239.14791 159.08913,239.47567 158.65898,240.89791 C 156.40329,248.356 116.05349,388.31143 116.05349,388.67733 C 116.05349,388.93615 125.05349,389.14791 136.05349,389.14791 L 156.05349,389.14791 L 156.05349,446.40451 C 156.05349,480.6505 156.44578,505.02894 157.02961,507.06464 C 158.20537,511.16429 161.48361,514.90649 165.55349,516.79489 C 169.59814,518.67158 177.31949,517.80675 181.20197,515.04218 z M 443.59486,515.26825 C 449.06273,512.78454 452.65526,508.23204 453.96436,502.12788 C 454.69426,498.72448 455.05349,472.65833 455.05349,423.09869 L 455.05349,349.14791 L 458.05349,349.14791 L 461.05349,349.14791 L 461.05349,426.08281 C 461.05349,478.14973 461.39826,503.92765 462.1201,505.83281 C 467.29321,519.48614 488.33646,521.028 495.81762,508.30186 L 498.55349,503.64791 L 498.81816,373.89791 L 499.08284,244.14791 L 502.06816,244.14791 L 505.05349,244.14791 L 505.05504,291.89791 C 505.05646,335.35484 505.2138,339.96259 506.80504,343.14791 C 511.39411,352.33419 526.28666,352.29659 531.22622,343.08625 C 532.93195,339.90574 533.05349,336.0503 533.05349,285.12361 C 533.05349,225.81559 532.92347,224.19166 527.35576,213.96195 C 523.85485,207.52963 515.34276,199.62751 508.57948,196.53118 C 499.79269,192.50845 492.91798,191.99186 452.88155,192.34579 C 417.46429,192.65888 415.25788,192.78681 409.77871,194.84487 C 398.49021,199.08499 389.38155,208.01239 384.69571,219.42871 C 382.60352,224.52602 382.54707,225.99082 382.27853,282.14791 C 382.01855,336.5161 382.10446,339.83433 383.8558,343.07064 C 388.65004,351.92997 402.84969,352.45128 408.02786,343.95809 C 409.9783,340.75897 410.04614,339.02901 410.04975,292.39791 L 410.05349,244.14791 L 413.55349,244.14791 L 417.05349,244.14791 L 417.05349,373.58281 C 417.05349,462.60287 417.38559,503.8967 418.11711,505.83281 C 419.52243,509.55231 423.82678,514.0671 427.55349,515.73055 C 431.79476,517.62368 438.8575,517.42013 443.59486,515.26825 z M 345.55349,319.14791 L 345.55349,122.64791 L 326.80349,122.37584 L 308.05349,122.10378 L 308.05349,318.45918 C 308.05349,426.45465 308.36331,515.1244 308.74199,515.50307 C 309.12066,515.88175 317.55816,516.06925 327.49199,515.91974 L 345.55349,515.64791 L 345.55349,319.14791 z M 199.55349,182.79182 C 207.03698,180.79768 210.24763,178.81007 215.80163,172.73311 C 221.78641,166.1848 224.05162,160.28276 224.05844,151.21977 C 224.06576,141.48786 221.66233,135.75216 214.56297,128.55917 C 207.57781,121.48189 201.41123,118.8853 191.66911,118.91917 C 178.95496,118.96337 167.65438,126.27151 162.27637,137.92757 C 155.55525,152.49464 161.19394,170.87156 174.83824,178.86765 C 183.31494,183.83533 191.03657,185.06133 199.55349,182.79182 z M 465.34295,182.66073 C 488.06819,176.74156 497.27733,150.89133 483.44579,131.84569 C 471.67182,115.63327 447.00137,114.40185 433.55676,129.3555 C 422.39803,141.7667 422.28953,160.85456 433.30976,172.81011 C 438.36022,178.28921 442.31568,180.72604 449.13486,182.55944 C 456.15141,184.4459 458.43444,184.46017 465.34295,182.66073 z " />
  </g>
</svg>
